<?xml version="1.0" standalone="no"?>
<!DOCTYPE svg PUBLIC "-//W3C//DTD SVG 20010904//EN"
 "http://www.w3.org/TR/2001/REC-SVG-20010904/DTD/svg10.dtd">
<svg version="1.0" xmlns="http://www.w3.org/2000/svg"
 width="2040.000000pt" height="2040.000000pt" viewBox="0 0 2040.000000 2040.000000"
 preserveAspectRatio="xMidYMid meet">
<metadata>
Created by potrace 1.11, written by Peter Selinger 2001-2013
</metadata>
<g transform="translate(0.000000,2040.000000) scale(0.100000,-0.100000)"
fill="#000000" stroke="none">
<path d="M9710 20380 c-52 -4 -140 -11 -195 -15 -55 -3 -107 -8 -115 -10 -8
-2 -49 -7 -90 -10 -97 -8 -332 -40 -485 -66 -825 -139 -1609 -395 -2350 -766
-521 -261 -1062 -608 -1480 -947 -38 -31 -79 -64 -90 -73 -219 -176 -629 -563
-820 -773 -183 -201 -347 -394 -449 -525 -711 -921 -1188 -1872 -1490 -2970
-87 -314 -176 -759 -216 -1075 -6 -47 -12 -98 -15 -115 -8 -60 -36 -373 -44
-495 -10 -160 -11 -816 -1 -980 8 -130 18 -259 25 -320 2 -19 7 -62 10 -95
118 -1123 467 -2207 1038 -3225 437 -780 1105 -1595 1793 -2188 40 -35 92 -97
150 -183 49 -72 96 -140 104 -152 8 -12 92 -134 186 -272 94 -137 199 -293
235 -345 35 -52 67 -99 72 -105 22 -28 263 -383 273 -404 l13 -25 600 0 599
-1 94 -121 c51 -67 103 -134 115 -150 12 -16 75 -98 140 -183 65 -84 128 -167
141 -185 12 -17 28 -38 35 -46 7 -9 33 -42 57 -75 25 -33 50 -66 57 -75 7 -8
55 -71 107 -140 53 -69 99 -129 104 -135 4 -5 59 -77 122 -160 63 -82 138
-181 168 -220 30 -38 93 -122 140 -185 48 -63 89 -117 92 -120 3 -3 41 -52 85
-110 94 -125 84 -112 138 -180 23 -30 76 -100 117 -155 41 -54 83 -108 92
-120 9 -11 87 -112 172 -225 86 -113 191 -250 234 -306 42 -55 88 -115 102
-134 14 -18 34 -45 46 -59 11 -14 72 -93 134 -176 63 -82 117 -152 120 -155 3
-3 17 -21 30 -40 14 -19 30 -42 37 -50 7 -8 134 -175 283 -370 149 -195 275
-356 278 -358 4 -1 14 7 22 19 8 12 42 56 75 99 68 88 213 278 840 1100 242
316 442 577 445 580 3 3 37 48 75 100 38 52 72 97 75 100 3 3 19 23 35 45 17
22 32 42 35 45 3 3 28 34 55 70 27 36 112 148 189 249 78 101 186 244 241 316
123 162 140 184 191 248 22 29 112 147 199 262 88 116 165 217 172 225 6 8 38
49 70 92 32 42 85 112 118 155 75 96 261 340 343 448 l60 80 598 2 c330 0 602
1 607 2 4 1 7 6 7 11 0 9 58 103 83 135 9 11 140 202 240 350 56 82 191 279
237 345 22 32 233 341 315 462 61 90 108 146 158 190 378 332 709 677 1056
1103 60 74 272 361 343 465 304 444 585 950 779 1403 33 78 67 156 74 172 7
17 38 95 68 175 304 799 484 1635 534 2491 15 260 7 1058 -12 1154 -2 11 -7
58 -10 105 -3 47 -7 96 -9 110 -3 14 -7 52 -11 85 -18 167 -16 158 -59 420
-20 116 -42 244 -51 285 -9 41 -19 86 -21 100 -17 85 -91 379 -129 515 -281
981 -729 1889 -1331 2695 -688 923 -1526 1670 -2534 2258 -180 105 -618 328
-805 410 -682 297 -1371 498 -2075 605 -173 27 -196 30 -350 47 -159 18 -172
19 -260 25 -47 4 -105 9 -130 12 -73 8 -946 11 -1050 3z"/>
</g>
</svg>
